<svg fill="none" height="22" viewBox="0 0 24 22" width="24" xmlns="http://www.w3.org/2000/svg">
    <path
        d="M0 4.25212C0 1.90374 1.91878 0 4.28571 0H19.7143C22.0812 0 24 1.90374 24 4.25212V12.7564C24 15.1047 22.0812 17.0085 19.7143 17.0085H13.1792L7.92914 21.5663C6.84288 22.5094 5.14286 21.744 5.14286 20.3119V17.0085H4.28571C1.91878 17.0085 0 15.1047 0 12.7564V4.25212ZM4.28571 1.70085C2.86555 1.70085 1.71429 2.84309 1.71429 4.25212V12.7564C1.71429 14.1654 2.86555 15.3076 4.28571 15.3076H6.85714V20.2369L12.5351 15.3076H19.7143C21.1344 15.3076 22.2857 14.1654 22.2857 12.7564V4.25212C22.2857 2.84309 21.1344 1.70085 19.7143 1.70085H4.28571Z"
        fill="#707070" />
</svg>
